<svg xmlns="http://www.w3.org/2000/svg" xmlns:xlink="http://www.w3.org/1999/xlink" viewBox="0 0 205.97 206.72"><defs><style>.cls-1{fill:#9e9e9e;}.cls-2{fill:#fff;opacity:0.1;}.cls-3{opacity:0.2;}.cls-4{fill:url(#radial-gradient);}</style><radialGradient id="radial-gradient" cx="-1.53" cy="-1.3" r="276.28" gradientTransform="translate(6.92 6.66) scale(1 1.01)" gradientUnits="userSpaceOnUse"><stop offset="0" stop-color="#fff" stop-opacity="0.1"/><stop offset="1" stop-color="#fff" stop-opacity="0"/></radialGradient></defs><title>mr_trash_bg</title><g id="back"><rect class="cls-1" width="205.97" height="205.97" rx="12"/></g><g id="back_edge" data-name="back, edge"><path class="cls-2" d="M182.78-7.36H9.22A16.25,16.25,0,0,0-7,8.84v1.35A16.25,16.25,0,0,1,9.22-6H182.78A16.26,16.26,0,0,1,199,10.19V8.84A16.26,16.26,0,0,0,182.78-7.36Z" transform="translate(6.99 7.36)"/><path class="cls-3" d="M9.22,198.61H182.78A16.26,16.26,0,0,0,199,182.41v-1.35a16.26,16.26,0,0,1-16.21,16.2H9.22A16.25,16.25,0,0,1-7,181.06v1.35A16.25,16.25,0,0,0,9.22,198.61Z" transform="translate(6.99 7.36)"/></g><g id="finish"><rect class="cls-4" x="0.3" width="205.38" height="206.72" rx="12"/></g></svg>